Run_40002
nRows=4
nColumns=164

# SIMM Motion File Header:
name Run_40002
datacolumns 164
datarows 4
otherdata 1
range 0.09000000 0.12000000
endheader
time	pelvis_tilt	pelvis_list	pelvis_rotation	pelvis_tx	pelvis_ty	pelvis_tz	hip_flexion_r	hip_adduction_r	hip_rotation_r	knee_angle_r	ankle_angle_r	hip_flexion_l	hip_adduction_l	hip_rotation_l	knee_angle_l	ankle_angle_l	lumbar_extension	lumbar_bending	lumbar_rotation	arm_flex_r	arm_add_r	arm_rot_r	elbow_flex_r	pro_sup_r	arm_flex_l	arm_add_l	arm_rot_l	elbow_flex_l	pro_sup_l	subtalar_angle_r	mtp_angle_r	subtalar_angle_l	mtp_angle_l	wrist_flex_r	wrist_dev_r	wrist_flex_l	wrist_dev_l	LASI_tx	LASI_ty	LASI_tz	RASI_tx	RASI_ty	RASI_tz	LPSI_tx	LPSI_ty	LPSI_tz	RPSI_tx	RPSI_ty	RPSI_tz	RTH1_tx	RTH1_ty	RTH1_tz	RTH2_tx	RTH2_ty	RTH2_tz	RTH3_tx	RTH3_ty	RTH3_tz	LTH1_tx	LTH1_ty	LTH1_tz	LTH2_tx	LTH2_ty	LTH2_tz	LTH3_tx	LTH3_ty	LTH3_tz	RTB1_tx	RTB1_ty	RTB1_tz	RTB2_tx	RTB2_ty	RTB2_tz	RTB3_tx	RTB3_ty	RTB3_tz	LTB1_tx	LTB1_ty	LTB1_tz	LTB2_tx	LTB2_ty	LTB2_tz	LTB3_tx	LTB3_ty	LTB3_tz	RCAL_tx	RCAL_ty	RCAL_tz	RTOE_tx	RTOE_ty	RTOE_tz	RMT5_tx	RMT5_ty	RMT5_tz	LCAL_tx	LCAL_ty	LCAL_tz	LTOE_tx	LTOE_ty	LTOE_tz	LMT5_tx	LMT5_ty	LMT5_tz	LACR_tx	LACR_ty	LACR_tz	RACR_tx	RACR_ty	RACR_tz	CLAV_tx	CLAV_ty	CLAV_tz	C7_tx	C7_ty	C7_tz	RUA1_tx	RUA1_ty	RUA1_tz	RUA2_tx	RUA2_ty	RUA2_tz	RUA3_tx	RUA3_ty	RUA3_tz	RLEL_tx	RLEL_ty	RLEL_tz	RMEL_tx	RMEL_ty	RMEL_tz	LUA1_tx	LUA1_ty	LUA1_tz	LUA2_tx	LUA2_ty	LUA2_tz	LUA3_tx	LUA3_ty	LUA3_tz	LLEL_tx	LLEL_ty	LLEL_tz	LMEL_tx	LMEL_ty	LMEL_tz	RFAsuperior_tx	RFAsuperior_ty	RFAsuperior_tz	RFAradius_tx	RFAradius_ty	RFAradius_tz	RFAulna_tx	RFAulna_ty	RFAulna_tz	LFAsuperior_tx	LFAsuperior_ty	LFAsuperior_tz	LFAradius_tx	LFAradius_ty	LFAradius_tz	LFAulna_tx	LFAulna_ty	LFAulna_tz
      0.09000000	    -10.52827860	     -3.74337988	      6.02388844	      0.89817527	      0.95496704	     -0.31241895	     40.55053311	      2.31966070	    -12.79131915	    -18.97593301	      9.89586141	     -8.45766167	     -0.56366460	      5.84760787	    -59.96761850	    -22.91927609	     -2.89647766	      4.18532202	    -12.69654169	    -50.21924136	    -15.60017254	    -12.35695858	    101.97513612	     87.80898247	     -5.76510598	    -29.23362517	      5.09697815	    125.22777934	    115.89953477	      0.00000000	      0.00000000	      0.00000000	      0.00000000	      0.00000000	      0.00000000	      0.00000000	      0.00000000	      0.89367101	      0.96454617	     -0.43765675	      0.91613534	      0.98585366	     -0.19975251	      0.74590590	      1.03478902	     -0.35615890	      0.74621612	      1.03453296	     -0.25565943	      0.92575986	      0.76220417	     -0.12580786	      1.01790126	      0.71210971	     -0.14807720	      1.00645527	      0.60747089	     -0.16849866	      0.79114154	      0.77075354	     -0.46482963	      0.79973419	      0.65427764	     -0.44484073	      0.69835875	      0.58022749	     -0.43276970	      1.10679109	      0.42386990	     -0.23725319	      1.08426944	      0.33926350	     -0.19166231	      1.12501848	      0.23893181	     -0.25877141	      0.57000038	      0.42759901	     -0.36322697	      0.47627955	      0.45978300	     -0.42014677	      0.37825276	      0.40135213	     -0.35662208	      1.05452687	      0.10288026	     -0.28043076	      1.26488246	      0.17231869	     -0.30087448	      1.24145166	      0.11521814	     -0.20471486	      0.26754385	      0.47849725	     -0.35089962	      0.21062737	      0.27033961	     -0.31518800	      0.18182691	      0.30566888	     -0.41404454	      0.93886917	      1.46192148	     -0.44950070	      0.91383124	      1.45307836	     -0.16172783	      1.00355793	      1.38081957	     -0.28121276	      0.87242076	      1.48944515	     -0.30761417	      0.81079280	      1.40738357	     -0.07264111	      0.73914413	      1.38910585	     -0.13045834	      0.70948506	      1.33454800	     -0.05850894	      0.64055961	      1.30089148	     -0.04489402	      0.62892733	      1.28830333	     -0.12180666	      0.90172850	      1.36245951	     -0.55449889	      0.83866479	      1.30421779	     -0.54751779	      0.89460091	      1.27066928	     -0.60447293	      0.88071969	      1.18796493	     -0.64522435	      0.84072309	      1.15602310	     -0.58862400	      0.71129395	      1.21064309	     -0.02571333	      0.80587557	      1.11959008	     -0.07584937	      0.74754072	      1.08383345	     -0.05853838	      0.97910612	      1.20991251	     -0.57935918	      1.04421186	      1.20408780	     -0.46017446	      1.08589658	      1.16621746	     -0.49448860
      0.10000000	     -9.84617386	     -3.67792574	      5.68386292	      0.90044546	      0.94893576	     -0.31267539	     38.35902614	      2.52546438	    -13.30739195	    -20.18565398	      7.84112664	     -6.99725903	     -0.48036395	      4.81467484	    -66.87358068	    -21.70081672	     -3.16861679	      4.39221854	    -11.32731722	    -49.30926817	    -16.41993373	    -12.16048154	    102.61402892	     87.53272306	     -7.39513258	    -28.88908705	      5.11229576	    123.23710105	    115.87105117	      0.00000000	      0.00000000	      0.00000000	      0.00000000	      0.00000000	      0.00000000	      0.00000000	      0.00000000	      0.89643590	      0.95841479	     -0.43729424	      0.91720665	      0.97995424	     -0.19812877	      0.74801833	      1.02710982	     -0.35717005	      0.74751790	      1.02653039	     -0.25657786	      0.92585736	      0.75457935	     -0.12809121	      1.01582580	      0.70225684	     -0.15028378	      0.99867895	      0.59575811	     -0.17139478	      0.79747051	      0.76287303	     -0.46498527	      0.80985192	      0.64644316	     -0.44733669	      0.71173686	      0.56971326	     -0.43370884	      1.09186925	      0.40658621	     -0.23841720	      1.06546744	      0.32268558	     -0.19232551	      1.10392835	      0.22095855	     -0.25874293	      0.58427019	      0.42245828	     -0.36518695	      0.49269137	      0.46278388	     -0.42123676	      0.39063205	      0.41218637	     -0.35671957	      1.02998479	      0.09834060	     -0.28227933	      1.24266751	      0.14504411	     -0.29704200	      1.21196100	      0.08907121	     -0.20113121	      0.28597871	      0.49843973	     -0.34941159	      0.21562111	      0.29383835	     -0.31788391	      0.18826402	      0.33357421	     -0.41553133	      0.93558096	      1.45600544	     -0.44860113	      0.91429406	      1.44593351	     -0.16071448	      1.00298606	      1.37444788	     -0.28203218	      0.87054167	      1.48249223	     -0.30515081	      0.81395705	      1.39758831	     -0.06912811	      0.74042770	      1.37863695	     -0.12386208	      0.71466167	      1.32209217	     -0.05187195	      0.64701393	      1.28675985	     -0.03687631	      0.63296677	      1.27459558	     -0.11318802	      0.89410908	      1.35833284	     -0.55347623	      0.83098834	      1.30086010	     -0.54557001	      0.88533348	      1.26703708	     -0.60397010	      0.86900692	      1.18524622	     -0.64543556	      0.82922693	      1.15371845	     -0.58856505	      0.72112157	      1.19888963	     -0.02010162	      0.81733183	      1.11147573	     -0.07349097	      0.76050224	      1.07401413	     -0.05469258	      0.96952578	      1.20138354	     -0.58110296	      1.03875360	      1.18902285	     -0.46401363	      1.07590092	      1.15050197	     -0.50078578
      0.11000000	     -9.50207263	     -3.82552344	      5.04652725	      0.90182942	      0.94179001	     -0.31241120	     37.16563140	      2.98491588	    -13.92802858	    -22.47026900	      5.67632784	     -5.03195218	     -0.67328728	      3.50143658	    -73.78851956	    -20.59088736	     -3.13637392	      4.80322171	     -9.60709200	    -48.29098024	    -17.34520819	    -12.01037883	    103.21963269	     87.10246233	     -8.97753165	    -28.59107523	      5.15902700	    121.22993111	    115.70800236	      0.00000000	      0.00000000	      0.00000000	      0.00000000	      0.00000000	      0.00000000	      0.00000000	      0.00000000	      0.89920267	      0.95139130	     -0.43668118	      0.91752281	      0.97313184	     -0.19710575	      0.74974253	      1.01873118	     -0.35866425	      0.74834968	      1.01817935	     -0.25778736	      0.92412916	      0.74644578	     -0.12931365	      1.01223704	      0.69178860	     -0.15094369	      0.99159401	      0.58532085	     -0.17307466	      0.80367290	      0.75401700	     -0.46520751	      0.82046957	      0.63787548	     -0.45023631	      0.72571643	      0.55864250	     -0.43484207	      1.07982656	      0.39272823	     -0.23936318	      1.04915321	      0.30972495	     -0.19367020	      1.08261497	      0.20609216	     -0.25989873	      0.59994885	      0.41682790	     -0.36775378	      0.51066033	      0.46504927	     -0.42235968	      0.40548685	      0.42189011	     -0.35706793	      1.00409836	      0.09698037	     -0.28551639	      1.21937338	      0.11737706	     -0.29616918	      1.18168126	      0.06717970	     -0.20001283	      0.30713299	      0.51649673	     -0.34693415	      0.22359353	      0.31598080	     -0.32133294	      0.19821283	      0.36054362	     -0.41739865	      0.93198539	      1.44976232	     -0.44791942	      0.91485679	      1.43815521	     -0.15955628	      1.00257251	      1.36749578	     -0.28293529	      0.86849592	      1.47445904	     -0.30283640	      0.81742477	      1.38690508	     -0.06569958	      0.74186612	      1.36694986	     -0.11691841	      0.72028879	      1.30862814	     -0.04494401	      0.65418251	      1.27165459	     -0.02842072	      0.63749638	      1.25969931	     -0.10413805	      0.88593634	      1.35354200	     -0.55236372	      0.82296329	      1.29692369	     -0.54344121	      0.87577988	      1.26303756	     -0.60446597	      0.85671626	      1.18218329	     -0.64551616	      0.81714580	      1.15102147	     -0.58838928	      0.73152626	      1.18622094	     -0.01411108	      0.82932512	      1.10273273	     -0.07098058	      0.77425173	      1.06331312	     -0.05083105	      0.95928738	      1.19250585	     -0.58312403	      1.03265021	      1.17337422	     -0.46815392	      1.06479484	      1.13436942	     -0.50750781
      0.12000000	     -9.62269138	     -4.25519871	      3.93046607	      0.90150957	      0.93345677	     -0.31129204	     37.66151688	      3.77893584	    -14.39079909	    -27.02000254	      4.60961986	     -2.18796796	     -1.22682998	      1.80882860	    -80.94944667	    -19.34455210	     -2.79383894	      5.49710378	     -7.29728588	    -46.99842822	    -18.36173405	    -11.90910711	    103.68326494	     86.46949202	    -10.41507526	    -28.31655874	      5.25205056	    119.20428726	    115.53886840	      0.00000000	      0.00000000	      0.00000000	      0.00000000	      0.00000000	      0.00000000	      0.00000000	      0.00000000	      0.90166837	      0.94333441	     -0.43555078	      0.91626494	      0.96551187	     -0.19685118	      0.75049299	      1.00937563	     -0.36079374	      0.74823173	      1.00965006	     -0.25944137	      0.91999776	      0.73872002	     -0.12907778	      1.00758646	      0.68283219	     -0.14954017	      0.98699491	      0.57837648	     -0.17238399	      0.81007035	      0.74425998	     -0.46540173	      0.83158270	      0.62867255	     -0.45332730	      0.74072274	      0.54691798	     -0.43600540	      1.07143856	      0.38449342	     -0.24041595	      1.03708825	      0.30268351	     -0.19590522	      1.06113473	      0.19693013	     -0.26267772	      0.61791487	      0.41073514	     -0.37057178	      0.53121190	      0.46610529	     -0.42363305	      0.42405438	      0.42991296	     -0.35768198	      0.97517980	      0.09938641	     -0.29001403	      1.19306013	      0.09286482	     -0.29901048	      1.14942121	      0.05323719	     -0.20176578	      0.33226697	      0.53155125	     -0.34336999	      0.23618963	      0.33582139	     -0.32574239	      0.21370103	      0.38541072	     -0.41980784	      0.92781858	      1.44331989	     -0.44774832	      0.91576083	      1.42970766	     -0.15805348	      1.00245172	      1.35992038	     -0.28401534	      0.86636102	      1.46548521	     -0.30059258	      0.82134513	      1.37490516	     -0.06230752	      0.74372748	      1.35336058	     -0.10957799	      0.72671435	      1.29363279	     -0.03771016	      0.66251478	      1.25519327	     -0.01940483	      0.64298810	      1.24301317	     -0.09449095	      0.87699038	      1.34774964	     -0.55107676	      0.81441088	      1.29206213	     -0.54104321	      0.86565621	      1.25842817	     -0.60588343	      0.84349699	      1.17868425	     -0.64527426	      0.80439831	      1.14786784	     -0.58796353	      0.74283929	      1.17221591	     -0.00763610	      0.84211632	      1.09303131	     -0.06830073	      0.78897250	      1.05140470	     -0.04702185	      0.94802827	      1.18327655	     -0.58555800	      1.02551363	      1.15701426	     -0.47269760	      1.05207527	      1.11787861	     -0.51480808
